<?xml version="1.0" standalone="no"?>
<!DOCTYPE svg PUBLIC "-//W3C//DTD SVG 20010904//EN"
 "http://www.w3.org/TR/2001/REC-SVG-20010904/DTD/svg10.dtd">
<svg version="1.0" xmlns="http://www.w3.org/2000/svg"
 width="200.000000pt" height="200.000000pt" viewBox="0 0 200.000000 200.000000"
 preserveAspectRatio="xMidYMid meet">
<metadata>
Created by potrace 1.14, written by Peter Selinger 2001-2017
</metadata>
<g transform="translate(0.000000,200.000000) scale(0.100000,-0.100000)"
fill="#000000" stroke="none">
<path d="M929 1825 c-176 -36 -296 -184 -296 -365 0 -137 78 -260 205 -322 61
-30 74 -33 162 -33 88 0 101 3 162 33 77 38 135 97 175 181 23 48 27 69 27
146 0 81 -3 97 -32 156 -73 152 -242 237 -403 204z m158 -90 c68 -20 143 -88
173 -157 49 -111 20 -240 -71 -322 -112 -101 -266 -101 -377 -1 -227 204 -19
567 275 480z"/>
<path d="M610 1066 c-88 -24 -142 -56 -204 -118 -109 -111 -135 -193 -133
-421 2 -145 3 -155 30 -210 33 -65 96 -120 161 -138 49 -14 963 -19 1040 -6
83 14 158 73 196 155 20 41 23 66 24 193 2 84 -3 171 -10 206 -37 181 -178
315 -365 347 -30 5 -42 1 -75 -25 -21 -18 -68 -46 -104 -63 -60 -29 -73 -31
-170 -31 -117 0 -173 18 -258 83 -53 40 -72 44 -132 28z m93 -105 c101 -69
180 -93 298 -94 105 0 192 27 280 85 59 40 61 40 102 28 86 -25 133 -58 190
-133 55 -72 69 -134 70 -306 0 -130 -2 -151 -21 -188 -25 -49 -61 -79 -111
-94 -24 -6 -205 -9 -532 -7 l-495 3 -42 28 c-24 15 -51 45 -64 70 -20 38 -22
56 -21 197 1 115 6 167 18 200 35 100 115 182 212 220 63 25 67 25 116 -9z"/>
<path d="M1031 787 c-16 -42 -121 -424 -121 -440 0 -23 35 -40 58 -28 26 14
146 445 132 472 -15 27 -58 25 -69 -4z"/>
<path d="M714 646 c-35 -35 -64 -71 -64 -80 0 -24 121 -146 145 -146 24 0 45
18 45 37 0 8 -20 35 -45 62 l-44 47 44 44 c46 45 54 67 33 88 -24 24 -52 11
-114 -52z"/>
<path d="M1172 698 c-21 -21 -13 -43 33 -88 l44 -44 -44 -47 c-25 -27 -45 -55
-45 -63 0 -17 26 -46 42 -46 18 0 148 133 148 151 0 25 -122 149 -147 149 -10
0 -24 -5 -31 -12z"/>
</g>
</svg>
