<?xml version="1.0" standalone="no"?>
<!DOCTYPE svg PUBLIC "-//W3C//DTD SVG 20010904//EN"
 "http://www.w3.org/TR/2001/REC-SVG-20010904/DTD/svg10.dtd">
<svg version="1.0" xmlns="http://www.w3.org/2000/svg"
 width="700.000000pt" height="700.000000pt" viewBox="0 0 700.000000 700.000000"
 preserveAspectRatio="xMidYMid meet">
<metadata>
Created by potrace 1.14, written by Peter Selinger 2001-2017
</metadata>
<g transform="translate(0.000000,700.000000) scale(0.100000,-0.100000)"
fill="#000000" stroke="none">
<path d="M3337 6994 c-1 -1 -27 -4 -57 -7 -566 -57 -1072 -296 -1470 -696
-366 -368 -585 -802 -675 -1336 -30 -179 -27 -549 5 -720 5 -27 12 -65 15 -82
14 -84 80 -323 105 -378 5 -11 21 -49 36 -85 74 -182 209 -408 338 -567 8 -10
47 -58 87 -108 69 -86 203 -248 224 -271 6 -6 21 -26 35 -44 14 -18 30 -38 36
-44 27 -29 184 -240 234 -317 81 -124 155 -271 195 -393 47 -140 46 -132 60
-533 8 -241 21 -260 180 -270 127 -8 1432 -8 1586 0 63 3 127 11 142 18 53 24
63 73 72 354 8 263 14 301 60 431 64 175 149 322 320 549 62 83 122 162 133
175 12 14 65 79 119 145 53 66 100 122 103 125 3 3 43 52 88 110 46 58 90 113
98 124 36 43 156 227 196 301 112 204 215 494 244 685 3 19 7 41 10 48 2 8 7
35 9 60 3 26 10 79 14 117 12 93 6 418 -8 525 -73 531 -299 994 -671 1369
-381 385 -857 627 -1370 695 -82 11 -485 27 -493 20z m398 -267 c11 -3 45 -8
75 -12 442 -57 909 -299 1230 -640 198 -209 365 -476 460 -735 37 -101 95
-322 105 -400 4 -30 11 -77 15 -105 15 -92 9 -402 -10 -527 -63 -416 -196
-708 -500 -1093 -52 -66 -97 -122 -100 -125 -18 -14 -300 -365 -372 -462 -118
-158 -170 -242 -248 -403 -127 -259 -160 -397 -164 -688 l-2 -142 -730 0 -729
0 -2 80 c-2 118 -12 306 -18 340 -24 135 -63 257 -124 390 -106 229 -221 392
-599 850 -145 176 -128 155 -220 275 -40 52 -76 100 -80 105 -50 62 -173 304
-221 435 -54 150 -94 316 -116 485 -12 95 -14 448 -2 505 3 14 11 59 17 100
51 329 194 657 413 945 84 109 280 306 392 393 304 235 704 395 1070 428 39 4
72 8 73 10 6 4 365 -4 387 -9z"/>
<path d="M3453 6011 c-61 -28 -70 -49 -77 -190 -2 -49 -9 -87 -16 -91 -6 -4
-53 -17 -103 -30 -171 -42 -294 -113 -422 -245 -122 -125 -174 -242 -179 -404
-4 -118 10 -188 54 -276 106 -212 296 -358 553 -423 l107 -27 1 -160 c4 -394
0 -718 -9 -727 -5 -5 -38 2 -83 18 -225 81 -318 174 -366 366 -27 111 -41 139
-79 156 -49 23 -101 15 -141 -22 -32 -29 -37 -39 -38 -84 -9 -244 144 -471
405 -602 75 -38 202 -82 273 -95 33 -7 37 -10 38 -39 2 -118 9 -180 24 -202
47 -73 141 -78 204 -10 21 22 27 62 30 199 1 33 5 47 15 47 25 0 190 51 251
77 93 41 219 128 275 191 62 69 124 169 149 243 43 123 30 321 -30 446 -97
203 -329 373 -589 429 -19 4 -38 9 -42 10 -5 1 -14 2 -22 3 -12 1 -14 67 -12
441 2 242 6 443 9 447 4 3 35 -1 69 -11 148 -41 278 -136 335 -243 17 -32 41
-95 52 -141 37 -148 92 -191 188 -146 48 23 64 53 68 123 10 191 -121 407
-329 545 -75 50 -168 89 -286 120 -51 14 -95 27 -97 30 -2 2 -7 44 -9 93 -6
113 -17 147 -57 171 -50 31 -69 33 -114 13z m-82 -588 c1 -21 2 -216 4 -434
l2 -396 -21 3 c-107 13 -244 82 -328 166 -81 81 -118 171 -114 275 9 183 144
332 366 404 83 27 90 25 91 -18z m445 -1183 c155 -75 229 -157 260 -288 16
-70 10 -154 -16 -226 -42 -110 -189 -226 -350 -276 -75 -23 -74 -24 -80 60 -4
63 -5 654 -1 759 l1 34 43 -7 c23 -4 87 -29 143 -56z"/>
<path d="M2573 1001 c-61 -38 -81 -117 -44 -178 34 -55 41 -56 931 -56 715 0
919 4 953 16 52 18 79 112 46 166 -10 17 -30 38 -46 48 -26 17 -79 18 -918 21
-873 3 -891 2 -922 -17z"/>
<path d="M2593 628 c-62 -16 -96 -94 -74 -167 14 -47 42 -61 141 -69 96 -8
1547 -9 1662 -1 103 8 133 23 147 76 18 66 -4 124 -57 149 -35 17 -94 18 -912
20 -481 0 -889 -3 -907 -8z"/>
<path d="M3062 250 c-54 -4 -67 -9 -88 -33 -47 -55 -43 -130 9 -181 l32 -31
485 0 485 1 31 47 c25 36 31 54 28 83 -4 49 -48 114 -77 115 -81 4 -854 3
-905 -1z"/>
</g>
</svg>
